<?xml version="1.0" encoding="UTF-8" standalone="no"?>
<!-- Created with Inkscape (http://www.inkscape.org/) -->

<svg
   xmlns:dc="http://purl.org/dc/elements/1.1/"
   xmlns:cc="http://creativecommons.org/ns#"
   xmlns:rdf="http://www.w3.org/1999/02/22-rdf-syntax-ns#"
   xmlns:svg="http://www.w3.org/2000/svg"
   xmlns="http://www.w3.org/2000/svg"
   xmlns:sodipodi="http://sodipodi.sourceforge.net/DTD/sodipodi-0.dtd"
   xmlns:inkscape="http://www.inkscape.org/namespaces/inkscape"
   version="1.1"
   id="svg5223"
   width="2463.0349"
   height="1379.2349"
   viewBox="0 0 2463.0349 1379.2349"
   sodipodi:docname="beams_tutorial.svg"
   inkscape:version="0.92.2 5c3e80d, 2017-08-06"
   inkscape:export-filename="/Users/jonathan/Desktop/app_dart.png"
   inkscape:export-xdpi="38.978134"
   inkscape:export-ydpi="38.978134">
  <metadata
     id="metadata5229">
    <rdf:RDF>
      <cc:Work
         rdf:about="">
        <dc:format>image/svg+xml</dc:format>
        <dc:type
           rdf:resource="http://purl.org/dc/dcmitype/StillImage" />
        <dc:title />
      </cc:Work>
    </rdf:RDF>
  </metadata>
  <defs
     id="defs5227">
    <marker
       inkscape:stockid="Arrow2Lend"
       orient="auto"
       refY="0"
       refX="0"
       id="marker1093"
       style="overflow:visible"
       inkscape:isstock="true">
      <path
         id="path1091"
         style="fill:#d40000;fill-opacity:1;fill-rule:evenodd;stroke:#d40000;stroke-width:0.625;stroke-linejoin:round;stroke-opacity:1"
         d="M 8.7185878,4.0337352 -2.2072895,0.01601326 8.7185884,-4.0017078 c -1.7454984,2.3720609 -1.7354408,5.6174519 -6e-7,8.035443 z"
         transform="matrix(-1.1,0,0,-1.1,-1.1,0)"
         inkscape:connector-curvature="0" />
    </marker>
    <marker
       inkscape:isstock="true"
       style="overflow:visible"
       id="marker1089"
       refX="0.0"
       refY="0.0"
       orient="auto"
       inkscape:stockid="Arrow2Lstart">
      <path
         transform="scale(1.1) translate(1,0)"
         d="M 8.7185878,4.0337352 L -2.2072895,0.016013256 L 8.7185884,-4.0017078 C 6.9730900,-1.6296469 6.9831476,1.6157441 8.7185878,4.0337352 z "
         style="fill-rule:evenodd;stroke-width:0.625;stroke-linejoin:round;stroke:#d40000;stroke-opacity:1;fill:#d40000;fill-opacity:1"
         id="path1087" />
    </marker>
    <marker
       inkscape:isstock="true"
       style="overflow:visible"
       id="marker1085"
       refX="0"
       refY="0"
       orient="auto"
       inkscape:stockid="Arrow2Lend">
      <path
         inkscape:connector-curvature="0"
         transform="matrix(-1.1,0,0,-1.1,-1.1,0)"
         d="M 8.7185878,4.0337352 -2.2072895,0.01601326 8.7185884,-4.0017078 c -1.7454984,2.3720609 -1.7354408,5.6174519 -6e-7,8.035443 z"
         style="fill:#d40000;fill-opacity:1;fill-rule:evenodd;stroke:#d40000;stroke-width:0.625;stroke-linejoin:round;stroke-opacity:1"
         id="path1083" />
    </marker>
    <marker
       inkscape:stockid="Arrow2Lend"
       orient="auto"
       refY="0"
       refX="0"
       id="marker10048"
       style="overflow:visible"
       inkscape:isstock="true">
      <path
         id="path10046"
         style="fill:#d40000;fill-opacity:1;fill-rule:evenodd;stroke:#d40000;stroke-width:0.625;stroke-linejoin:round;stroke-opacity:1"
         d="M 8.7185878,4.0337352 -2.2072895,0.01601326 8.7185884,-4.0017078 c -1.7454984,2.3720609 -1.7354408,5.6174519 -6e-7,8.035443 z"
         transform="matrix(-1.1,0,0,-1.1,-1.1,0)"
         inkscape:connector-curvature="0" />
    </marker>
    <marker
       inkscape:isstock="true"
       style="overflow:visible"
       id="marker9908"
       refX="0"
       refY="0"
       orient="auto"
       inkscape:stockid="Arrow2Lend">
      <path
         inkscape:connector-curvature="0"
         transform="matrix(-1.1,0,0,-1.1,-1.1,0)"
         d="M 8.7185878,4.0337352 -2.2072895,0.01601326 8.7185884,-4.0017078 c -1.7454984,2.3720609 -1.7354408,5.6174519 -6e-7,8.035443 z"
         style="fill:#d40000;fill-opacity:1;fill-rule:evenodd;stroke:#d40000;stroke-width:0.625;stroke-linejoin:round;stroke-opacity:1"
         id="path9906" />
    </marker>
    <marker
       inkscape:stockid="Arrow2Lend"
       orient="auto"
       refY="0"
       refX="0"
       id="marker9832"
       style="overflow:visible"
       inkscape:isstock="true">
      <path
         id="path9830"
         style="fill:#d40000;fill-opacity:1;fill-rule:evenodd;stroke:#d40000;stroke-width:0.625;stroke-linejoin:round;stroke-opacity:1"
         d="M 8.7185878,4.0337352 -2.2072895,0.01601326 8.7185884,-4.0017078 c -1.7454984,2.3720609 -1.7354408,5.6174519 -6e-7,8.035443 z"
         transform="matrix(-1.1,0,0,-1.1,-1.1,0)"
         inkscape:connector-curvature="0" />
    </marker>
    <marker
       inkscape:isstock="true"
       style="overflow:visible"
       id="marker9600"
       refX="0"
       refY="0"
       orient="auto"
       inkscape:stockid="Arrow2Lend">
      <path
         inkscape:connector-curvature="0"
         transform="matrix(-1.1,0,0,-1.1,-1.1,0)"
         d="M 8.7185878,4.0337352 -2.2072895,0.01601326 8.7185884,-4.0017078 c -1.7454984,2.3720609 -1.7354408,5.6174519 -6e-7,8.035443 z"
         style="fill:#d40000;fill-opacity:1;fill-rule:evenodd;stroke:#d40000;stroke-width:0.625;stroke-linejoin:round;stroke-opacity:1"
         id="path9598" />
    </marker>
    <marker
       inkscape:isstock="true"
       style="overflow:visible"
       id="marker9170"
       refX="0"
       refY="0"
       orient="auto"
       inkscape:stockid="Arrow2Lend"
       inkscape:collect="always">
      <path
         inkscape:connector-curvature="0"
         transform="matrix(-1.1,0,0,-1.1,-1.1,0)"
         d="M 8.7185878,4.0337352 -2.2072895,0.01601326 8.7185884,-4.0017078 c -1.7454984,2.3720609 -1.7354408,5.6174519 -6e-7,8.035443 z"
         style="fill:#d40000;fill-opacity:1;fill-rule:evenodd;stroke:#d40000;stroke-width:0.625;stroke-linejoin:round;stroke-opacity:1"
         id="path9168" />
    </marker>
    <marker
       inkscape:stockid="Arrow2Lend"
       orient="auto"
       refY="0"
       refX="0"
       id="marker8462"
       style="overflow:visible"
       inkscape:isstock="true"
       inkscape:collect="always">
      <path
         id="path8460"
         style="fill:#d40000;fill-opacity:1;fill-rule:evenodd;stroke:#d40000;stroke-width:0.625;stroke-linejoin:round;stroke-opacity:1"
         d="M 8.7185878,4.0337352 -2.2072895,0.01601326 8.7185884,-4.0017078 c -1.7454984,2.3720609 -1.7354408,5.6174519 -6e-7,8.035443 z"
         transform="matrix(-1.1,0,0,-1.1,-1.1,0)"
         inkscape:connector-curvature="0" />
    </marker>
    <marker
       inkscape:isstock="true"
       style="overflow:visible"
       id="marker8404"
       refX="0.0"
       refY="0.0"
       orient="auto"
       inkscape:stockid="Arrow2Lstart">
      <path
         transform="scale(1.1) translate(1,0)"
         d="M 8.7185878,4.0337352 L -2.2072895,0.016013256 L 8.7185884,-4.0017078 C 6.9730900,-1.6296469 6.9831476,1.6157441 8.7185878,4.0337352 z "
         style="fill-rule:evenodd;stroke-width:0.625;stroke-linejoin:round;stroke:#d40000;stroke-opacity:1;fill:#d40000;fill-opacity:1"
         id="path8402" />
    </marker>
    <marker
       inkscape:stockid="Arrow2Lstart"
       orient="auto"
       refY="0.0"
       refX="0.0"
       id="Arrow2Lstart"
       style="overflow:visible"
       inkscape:isstock="true"
       inkscape:collect="always">
      <path
         id="path6580"
         style="fill-rule:evenodd;stroke-width:0.625;stroke-linejoin:round;stroke:#d40000;stroke-opacity:1;fill:#d40000;fill-opacity:1"
         d="M 8.7185878,4.0337352 L -2.2072895,0.016013256 L 8.7185884,-4.0017078 C 6.9730900,-1.6296469 6.9831476,1.6157441 8.7185878,4.0337352 z "
         transform="scale(1.1) translate(1,0)" />
    </marker>
    <marker
       inkscape:stockid="Arrow2Lend"
       orient="auto"
       refY="0"
       refX="0"
       id="marker7634"
       style="overflow:visible"
       inkscape:isstock="true">
      <path
         id="path7632"
         style="fill:#d40000;fill-opacity:1;fill-rule:evenodd;stroke:#d40000;stroke-width:0.625;stroke-linejoin:round;stroke-opacity:1"
         d="M 8.7185878,4.0337352 -2.2072895,0.01601326 8.7185884,-4.0017078 c -1.7454984,2.3720609 -1.7354408,5.6174519 -6e-7,8.035443 z"
         transform="matrix(-1.1,0,0,-1.1,-1.1,0)"
         inkscape:connector-curvature="0" />
    </marker>
    <marker
       inkscape:isstock="true"
       style="overflow:visible"
       id="marker7412"
       refX="0"
       refY="0"
       orient="auto"
       inkscape:stockid="Arrow2Lend"
       inkscape:collect="always">
      <path
         inkscape:connector-curvature="0"
         transform="matrix(-1.1,0,0,-1.1,-1.1,0)"
         d="M 8.7185878,4.0337352 -2.2072895,0.01601326 8.7185884,-4.0017078 c -1.7454984,2.3720609 -1.7354408,5.6174519 -6e-7,8.035443 z"
         style="fill:#d40000;fill-opacity:1;fill-rule:evenodd;stroke:#d40000;stroke-width:0.625;stroke-linejoin:round;stroke-opacity:1"
         id="path7410" />
    </marker>
    <marker
       inkscape:stockid="Arrow2Lend"
       orient="auto"
       refY="0"
       refX="0"
       id="Arrow2Lend"
       style="overflow:visible"
       inkscape:isstock="true"
       inkscape:collect="always">
      <path
         id="path6583"
         style="fill:#d40000;fill-opacity:1;fill-rule:evenodd;stroke:#d40000;stroke-width:0.625;stroke-linejoin:round;stroke-opacity:1"
         d="M 8.7185878,4.0337352 -2.2072895,0.01601326 8.7185884,-4.0017078 c -1.7454984,2.3720609 -1.7354408,5.6174519 -6e-7,8.035443 z"
         transform="matrix(-1.1,0,0,-1.1,-1.1,0)"
         inkscape:connector-curvature="0" />
    </marker>
    <marker
       inkscape:stockid="Arrow1Lend"
       orient="auto"
       refY="0"
       refX="0"
       id="Arrow1Lend"
       style="overflow:visible"
       inkscape:isstock="true">
      <path
         id="path6565"
         d="M 0,0 5,-5 -12.5,0 5,5 Z"
         style="fill:#000000;fill-opacity:1;fill-rule:evenodd;stroke:#000000;stroke-width:1.00000003pt;stroke-opacity:1"
         transform="matrix(-0.8,0,0,-0.8,-10,0)"
         inkscape:connector-curvature="0" />
    </marker>
  </defs>
  <sodipodi:namedview
     pagecolor="#ffffff"
     bordercolor="#666666"
     borderopacity="1"
     objecttolerance="10"
     gridtolerance="10"
     guidetolerance="10"
     inkscape:pageopacity="1"
     inkscape:pageshadow="2"
     inkscape:window-width="1415"
     inkscape:window-height="855"
     id="namedview5225"
     showgrid="false"
     inkscape:zoom="0.30663626"
     inkscape:cx="1133.6031"
     inkscape:cy="767.20073"
     inkscape:window-x="0"
     inkscape:window-y="0"
     inkscape:window-maximized="0"
     inkscape:current-layer="svg5223"
     fit-margin-top="100"
     fit-margin-left="500"
     fit-margin-right="500"
     fit-margin-bottom="100" />
  <g
     transform="translate(4099.8635,6898.168)"
     id="g9735">
    <g
       id="g9729"
       transform="matrix(0.18672569,0,0,0.18260554,-889.04259,-4578.7683)">
      <rect
         ry="110.68856"
         y="-3126.1653"
         x="-2352.1318"
         height="1738.7328"
         width="876.28442"
         id="rect9723"
         style="opacity:1;fill:#000000;fill-opacity:1;stroke:#000000;stroke-width:1.00157475;stroke-miterlimit:4;stroke-dasharray:none;stroke-opacity:1" />
      <rect
         ry="55.344685"
         y="-3056.9849"
         x="-2289.8696"
         height="1480.4596"
         width="751.75977"
         id="rect9725"
         style="opacity:1;fill:#ffffff;fill-opacity:1;stroke:#000000;stroke-width:1.00157475;stroke-miterlimit:4;stroke-dasharray:none;stroke-opacity:1" />
      <circle
         r="59.956303"
         cy="-1479.673"
         cx="-1913.9896"
         id="circle9727"
         style="opacity:1;fill:#ffffff;fill-opacity:1;stroke:#000000;stroke-width:1.00157475;stroke-miterlimit:4;stroke-dasharray:none;stroke-opacity:1" />
    </g>
    <text
       xml:space="preserve"
       style="font-style:normal;font-weight:normal;font-size:66.66666412px;line-height:1.25;font-family:sans-serif;letter-spacing:0px;word-spacing:0px;fill:#000000;fill-opacity:1;stroke:none"
       x="-1322.0195"
       y="-5192.3516"
       id="text9733"><tspan
         sodipodi:role="line"
         id="tspan9731"
         x="-1322.0195"
         y="-5192.3516">user</tspan></text>
  </g>
  <g
     transform="translate(4099.8635,6898.168)"
     id="g9749">
    <g
       id="g9743"
       transform="matrix(0.20130373,0,0,0.20130373,-858.19915,-3957.5561)">
      <rect
         style="opacity:1;fill:#000000;fill-opacity:1;stroke:#000000;stroke-width:1.00157475;stroke-miterlimit:4;stroke-dasharray:none;stroke-opacity:1"
         id="rect9737"
         width="876.28442"
         height="1738.7328"
         x="-2352.1318"
         y="-3126.1653"
         ry="110.68856" />
      <rect
         style="opacity:1;fill:#ffffff;fill-opacity:1;stroke:#000000;stroke-width:1.00157475;stroke-miterlimit:4;stroke-dasharray:none;stroke-opacity:1"
         id="rect9739"
         width="751.75977"
         height="1480.4596"
         x="-2289.8696"
         y="-3056.9849"
         ry="55.344685" />
      <circle
         style="opacity:1;fill:#ffffff;fill-opacity:1;stroke:#000000;stroke-width:1.00157475;stroke-miterlimit:4;stroke-dasharray:none;stroke-opacity:1"
         id="circle9741"
         cx="-1913.9896"
         cy="-1479.673"
         r="59.956303" />
    </g>
    <text
       xml:space="preserve"
       style="font-style:normal;font-weight:normal;font-size:66.66666412px;line-height:1.25;font-family:sans-serif;letter-spacing:0px;word-spacing:0px;fill:#000000;fill-opacity:1;stroke:none"
       x="-1347.1219"
       y="-4152.3403"
       id="text9747"><tspan
         sodipodi:role="line"
         id="tspan9745"
         x="-1347.1219"
         y="-4152.3403">admin</tspan></text>
  </g>
  <g
     transform="translate(4097.5575,6981.1844)"
     id="g9757">
    <path
       style="fill:#320f50;stroke-width:1.00416481"
       d="m -113.55365,-4896.7217 c -5.70386,-3.3721 -10.71536,-6.686 -11.13667,-7.3644 -0.4213,-0.6784 -0.77282,-61.5972 -0.78119,-135.3751 -0.0121,-105.7677 -0.27768,-134.4787 -1.25608,-135.7347 -1.36315,-1.75 -26.81776,-17.0792 -28.36049,-17.0792 -0.52777,0 -1.23078,0.723 -1.56217,1.6067 -0.33139,0.8837 -0.60255,60.9431 -0.60255,133.4653 0,109.3262 -0.22748,131.948 -1.33127,132.3814 -0.73222,0.2875 -6.04776,-2.1739 -11.81235,-5.4698 -8.58238,-4.9069 -10.679,-6.5735 -11.57368,-9.1997 -0.77357,-2.2707 -1.09264,-42.1446 -1.09264,-136.5551 v -133.3479 l -5.70796,-3.2753 c -3.13938,-1.8014 -9.41137,-5.5336 -13.93774,-8.2937 -4.52637,-2.7601 -8.88015,-4.7629 -9.67502,-4.4508 -1.25326,0.4921 -1.47875,18.2169 -1.69715,133.413 -0.25163,132.7292 -0.25363,132.8458 -2.27166,133.1415 -2.32371,0.3404 -18.96079,-9.0371 -21.55658,-12.1504 -1.63542,-1.9615 -1.73723,-9.9363 -1.73723,-136.1014 v -134.0179 l 2.51009,-2.3804 c 1.38053,-1.3091 5.69466,-4.1442 9.58699,-6.3 3.8923,-2.1559 8.58897,-4.7746 10.43712,-5.8194 l 3.36024,-1.8996 31.47565,18.5422 c 17.31163,10.1983 38.84641,22.8663 47.85508,28.1513 16.53603,9.701 28.64159,16.9088 43.181989,25.7112 4.367849,2.6442 9.840056,5.7829 12.160485,6.975 l 4.218912,2.1674 4.218949,-2.1674 c 3.535501,-1.8163 12.355338,-7.0431 23.447656,-13.8954 2.295493,-1.4181 2.307605,-1.4988 0.49636,-3.3004 -1.021181,-1.0158 -11.014235,-7.2152 -22.20683,-13.7766 -26.990816,-15.8226 -35.826181,-21.0289 -50.627201,-29.8322 -6.82474,-4.0592 -22.9063,-13.5668 -35.73684,-21.1279 -12.83051,-7.5611 -23.62192,-14.2117 -23.98089,-14.7791 -1.33245,-2.1061 0.59404,-3.8214 11.03814,-9.8281 7.49084,-4.3083 11.25931,-5.9397 12.56576,-5.4399 1.66348,0.6366 14.07899,7.8644 41.57364,24.2028 4.91383,2.92 12.06117,7.143 15.883041,9.3844 3.821868,2.2415 12.30935,7.27 18.861123,11.1745 25.227768,15.0344 58.64162,34.5028 60.205754,35.0785 2.275259,0.8375 30.625383,-15.3023 30.625383,-17.4351 0,-0.8844 -4.1189927,-3.491 -23.82454,-15.0767 -9.289872,-5.4618 -21.851819,-12.8811 -41.693015,-24.6245 -3.548859,-2.1005 -10.696235,-6.3198 -15.883038,-9.3763 -5.186803,-3.0565 -15.237778,-8.9946 -22.335532,-13.1957 -7.097719,-4.2012 -16.629426,-9.8254 -21.181556,-12.4983 -4.55215,-2.6729 -8.53838,-5.5579 -8.85831,-6.411 -0.53472,-1.4258 4.97714,-7.2934 6.85118,-7.2934 0.39099,0 3.42924,-1.657 6.75169,-3.6822 3.32248,-2.0252 7.06494,-3.6822 8.3166,-3.6822 1.984084,0 28.537959,15.2374 85.550255,49.0911 8.7356625,5.1872 23.9238188,14.1475 33.751443,19.9118 10.178075,5.9698 18.396183,11.4643 19.094662,12.7664 1.509419,2.8138 1.706873,25.4271 0.246399,28.2194 -0.555029,1.0612 -4.240393,3.8515 -8.189717,6.2008 -16.459226,9.7906 -62.375429,36.9594 -66.741995,39.4915 -1.637943,0.9498 -9.008671,5.2932 -16.379398,9.6519 -16.835717,9.956 -30.53679,18.0339 -38.21857,22.5331 -3.275851,1.9186 -6.49688,4.0293 -7.157778,4.6905 -1.462611,1.463 -1.956901,33.9284 -0.538678,35.3796 0.931876,0.9535 2.730582,0.014 22.586811,-11.7988 5.459811,-3.2481 15.510786,-9.2023 22.335532,-13.2315 6.824746,-4.0293 21.5662,-12.7338 32.758795,-19.3435 11.192595,-6.6098 28.352047,-16.7329 38.132116,-22.4959 9.780104,-5.763 18.554808,-10.4782 19.499437,-10.4782 2.506234,0 2.92255,2.0053 2.92255,14.0779 0,7.8434 -0.399966,11.4487 -1.438459,12.9658 -0.791169,1.1558 -5.593287,4.5257 -10.671442,7.4886 -5.07812,2.963 -12.806636,7.5368 -17.174449,10.1642 -4.3678492,2.6274 -21.789552,12.9128 -38.71493,22.8565 -16.925379,9.9438 -34.347081,20.2237 -38.71493,22.8443 -4.367849,2.6206 -13.240051,7.9056 -19.71602,11.7444 -6.476005,3.8389 -12.059888,7.7638 -12.408629,8.7222 -1.041595,2.862 -0.165358,34.3915 0.955778,34.3915 0.891909,0 12.982503,-7.0138 53.504403,-31.038 17.041293,-10.1033 60.095574,-35.5183 71.011741,-41.9182 9.517284,-5.5799 11.79664,-6.232 12.764388,-3.6515 1.279869,3.4129 0.642838,23.2767 -0.814751,25.4061 -1.32062,1.9293 -6.582515,5.2482 -33.3268614,21.0211 -5.7327838,3.381 -13.9969151,8.2878 -18.3647636,10.9039 -4.367849,2.6161 -21.789552,12.8923 -38.71493,22.836 -16.925379,9.9437 -34.458757,20.3264 -38.963074,23.0727 l -8.189717,4.9932 v 50.1464 c 0,46.9796 -0.411828,55.3575 -2.721218,55.3575 -0.43174,0 -5.45179,-2.7589 -11.15565,-6.1308 z"
       id="path9751"
       inkscape:connector-curvature="0" />
    <text
       xml:space="preserve"
       style="font-style:normal;font-weight:normal;font-size:66.66666412px;line-height:1.25;font-family:sans-serif;letter-spacing:0px;word-spacing:0px;fill:#000000;fill-opacity:1;stroke:none"
       x="-214.45909"
       y="-5362.9966"
       id="text9755"><tspan
         sodipodi:role="line"
         id="tspan9753"
         x="-214.45909"
         y="-5362.9966">Pusher</tspan></text>
  </g>
  <g
     transform="translate(4088.3335,6815.1516)"
     id="g9775">
    <g
       id="g9769"
       transform="matrix(0.33139789,0,0,0.31898711,-406.36392,-4692.0955)">
      <path
         style="fill:#a5d5ee"
         d="m 873.03018,1638.9875 c -4.62965,-2.9258 -400.61736,-399.7952 -405.6933,-406.5966 -15.11511,-20.2532 -23.49811,-42.9962 -24.51173,-66.5 -0.4803,-11.137 -0.2581,-13.6604 2.03771,-23.1422 1.41723,-5.8532 4.15443,-14.6318 6.08265,-19.508 2.98399,-7.546 168.53448,-353.61291 171.54851,-358.60516 1.41136,-2.33768 344.72722,-173.95115 353.27263,-176.59056 16.80148,-5.18945 41.96555,-7.52515 56.24895,-5.22097 14.9994,2.41965 32.6673,9.84747 49.5146,20.81652 7.3746,4.80152 35.7411,32.7552 214.2522,211.1341 l 205.7523,205.59987 -0.2522,216.0082 -0.2523,216.0082 -93.5,0.5 -93.5,0.5 -0.2552,92.4038 c -0.1831,66.2538 -0.5714,92.7848 -1.3725,93.75 -0.9301,1.1207 -37.5684,1.3456 -218.7448,1.3425 -211.91971,0 -217.7062,-0.053 -220.62752,-1.8997 z"
         id="path9759"
         inkscape:connector-curvature="0" />
      <path
         style="fill:#44c3fd"
         d="m 672.36084,1436.6078 c -217.99655,-217.5099 -207.25017,-206.296 -216.78606,-226.2169 -7.03865,-14.7041 -12.02254,-35.0473 -12.03871,-49.1396 -0.009,-7.5308 2.59743,-20.0137 6.60572,-31.641 2.81287,-8.1596 145.94557,-308.73141 169.04282,-354.98179 l 5.37467,-10.76236 172.73545,-86.32659 c 131.05119,-65.4944 174.666,-86.85503 180.73545,-88.51635 14.25421,-3.90165 26.73322,-5.32548 43.00002,-4.9062 14.1124,0.36374 15.6308,0.60176 25.6601,4.02241 13.0347,4.44568 21.5654,8.676 33.9008,16.81129 8.5127,5.61421 29.5837,26.35482 214.6914,211.32446 l 205.2523,205.09933 -0.2523,215.0082 -0.2523,215.0082 -93.4442,0.2552 c -73.232,0.1999 -93.6152,0.5244 -94.2347,1.5 -0.4348,0.6846 -0.7974,42.7573 -0.8058,93.4948 l -0.015,92.25 -218.25,-0.033 -218.25002,-0.033 z"
         id="path9761"
         inkscape:connector-curvature="0" />
      <path
         style="fill:#3ec2fd"
         d="m 761.99885,1524.1009 c -106.53553,-106.2327 -113.2207,-113.1035 -116.32667,-119.556 -6.84414,-14.2185 -8.37974,-18.7999 -11.95051,-35.654 -1.42407,-6.7217 -1.64619,-38.1308 -2.14023,-302.6452 -0.53871,-288.42513 -0.59463,-295.19301 -2.45625,-297.24996 -1.04774,-1.15768 -2.28524,-2.10487 -2.75,-2.10487 -1.27833,0 -1.0809,580.89003 0.20148,592.78943 1.83384,17.0166 6.01322,29.3408 13.79013,40.6644 2.24895,3.2746 3.90149,6.1414 3.67231,6.3706 -1.0159,1.0159 -12.70684,-10.3944 -89.14532,-87.0052 -53.03047,-53.15 -83.17708,-84.1031 -87.02748,-89.3557 -17.00513,-23.198 -26.69368,-55.6811 -23.31543,-78.1704 2.86494,-19.0722 5.54965,-25.0499 93.61375,-208.43814 46.12605,-96.05476 84.75917,-175.81634 85.85137,-177.24796 1.12787,-1.47838 4.15212,-3.31177 7,-4.2436 2.7578,-0.90236 80.38918,-39.32998 172.51418,-85.39471 93.74417,-46.87436 170.56202,-84.69539 174.45386,-85.89182 15.96509,-4.908 39.85206,-7.21854 52.54616,-5.08269 10.1363,1.70549 20.6872,5.2189 31.5,10.48929 19.8277,9.66452 19.1852,9.08406 108.5,98.0147 45.925,45.72747 88,87.01869 93.5,91.75826 5.5,4.73957 60.9625,59.61296 123.25,121.94086 l 113.25,113.32341 v 214.1172 c 0,178.2361 -0.2256,214.3044 -1.3462,215.2345 -0.9656,0.8013 -27.7568,1.1894 -94.75,1.3724 l -93.4038,0.2552 -0.2552,92.25 -0.2552,92.25 -217.7448,-0.04 -217.74482,-0.04 z"
         id="path9763"
         inkscape:connector-curvature="0" />
      <path
         style="fill:#29b4f4"
         d="m 998.79358,1451.8909 -310.2366,-0.5 -14.06918,-14 c -7.73805,-7.7 -16.47249,-16.925 -19.40986,-20.5 -9.05621,-11.0221 -15.60984,-25.8751 -19.85549,-45 l -2.10896,-9.5 -0.54165,-294.6768 -0.54166,-294.67684 -2.06085,-2.76014 c -1.13346,-1.51808 -2.59596,-2.93852 -3.25,-3.15653 -1.65325,-0.55109 -1.72815,577.70621 -0.0768,592.98101 1.85815,17.1879 5.90597,28.9982 14.06566,41.0393 2.15894,3.1859 3.33938,5.75 2.64714,5.75 -1.83923,0 -164.85221,-163.151 -172.12663,-172.2723 -19.28253,-24.1783 -30.23443,-57.9105 -26.69161,-82.211 2.78716,-19.1173 5.35045,-24.83 93.62754,-208.66174 46.12605,-96.05476 84.76555,-175.82652 85.86555,-177.27058 1.1,-1.44406 3.575,-3.06379 5.5,-3.59941 4.71052,-1.31066 551.37562,-1.30533 570.56932,0.006 26.0365,1.77825 43.0906,7.0264 57.674,17.74836 3.4412,2.53001 59.4709,57.73625 124.5105,122.68054 l 118.2537,118.08013 v 214.1275 c 0,177.765 -0.2314,214.3165 -1.344,215.2398 -1.8095,1.5018 -113.9095,1.7556 -500.39642,1.1327 z"
         id="path9765"
         inkscape:connector-curvature="0" />
      <path
         style="fill:#01579a"
         d="M 972.02816,1111.5788 C 785.57927,924.95715 632.01768,770.87348 630.78018,769.17063 c -1.2375,-1.70284 -2.25,-3.36984 -2.25,-3.70443 0,-0.33459 131.2875,-0.4767 291.75,-0.3158 l 291.75002,0.29254 9.9834,2.29218 c 15.5968,3.58102 30.3919,10.34625 42.5166,19.44114 3.025,2.2691 57.1375,55.65514 120.25,118.63565 l 114.75,114.50999 v 215.2845 215.2845 h -94.252 -94.2521 z m -417.6705,206.5273 c -87.19456,-87.3405 -88.5876,-88.8594 -97.22109,-106.0037 -7.68776,-15.2664 -12.60639,-34.9249 -12.60639,-50.3847 0,-9.7572 2.01882,-19.8144 6.64574,-33.1072 3.13529,-9.0075 169.12201,-356.74182 171.4452,-359.16963 0.56534,-0.5908 0.97495,-0.40175 1.08333,0.5 0.0958,0.7975 0.21969,132.625 0.2752,292.95003 0.0766,221.1953 0.3904,293.4294 1.30113,299.5 1.9294,12.8606 4.45007,21.4243 8.96217,30.4481 2.32334,4.6465 4.10406,8.5684 3.95715,8.7153 -0.14691,0.1469 -37.87601,-37.4048 -83.84244,-83.4482 z"
         id="path9767"
         inkscape:connector-curvature="0" />
    </g>
    <text
       xml:space="preserve"
       style="font-style:normal;font-weight:normal;font-size:66.66666412px;line-height:1.25;font-family:sans-serif;letter-spacing:0px;word-spacing:0px;fill:#000000;fill-opacity:1;stroke:none"
       x="-246.74324"
       y="-4078.5479"
       id="text9773"><tspan
         sodipodi:role="line"
         id="tspan9771"
         x="-246.74324"
         y="-4078.5479">Dart server</tspan></text>
  </g>
  <path
     style="fill:#d40000;stroke:#d40000;stroke-width:5;stroke-linecap:butt;stroke-linejoin:miter;stroke-miterlimit:4;stroke-dasharray:none;stroke-opacity:1;marker-end:url(#marker8462)"
     d="m 3022.4216,2101.6728 722.7709,353.9799"
     id="path9777"
     inkscape:connector-curvature="0" />
  <path
     inkscape:connector-curvature="0"
     id="path9779"
     d="M 3819.5929,2319.1736 3098.224,1962.3452"
     style="fill:#d40000;stroke:#d40000;stroke-width:5;stroke-linecap:butt;stroke-linejoin:miter;stroke-miterlimit:4;stroke-dasharray:none;stroke-opacity:1;marker-end:url(#marker9170)" />
  <text
     transform="rotate(26.982944)"
     id="text9783"
     y="477.4339"
     x="3894.3425"
     style="font-style:normal;font-weight:normal;font-size:66.66666412px;line-height:1.25;font-family:sans-serif;letter-spacing:0px;word-spacing:0px;fill:#000000;fill-opacity:1;stroke:none"
     xml:space="preserve"><tspan
       style="fill:#d40000;fill-opacity:1"
       y="477.4339"
       x="3894.3425"
       id="tspan9781"
       sodipodi:role="line">password</tspan></text>
  <text
     transform="rotate(25.989681)"
     id="text9787"
     y="393.25342"
     x="3963.1731"
     style="font-style:normal;font-weight:normal;font-size:66.66666412px;line-height:1.25;font-family:sans-serif;letter-spacing:0px;word-spacing:0px;fill:#000000;fill-opacity:1;stroke:none"
     xml:space="preserve"><tspan
       style="fill:#d40000;fill-opacity:1"
       y="393.25342"
       x="3963.1731"
       id="tspan9785"
       sodipodi:role="line">token</tspan></text>
  <text
     id="text9791"
     y="1908.2249"
     x="2568.0571"
     style="font-style:normal;font-weight:normal;font-size:66.66666412px;line-height:1.25;font-family:sans-serif;letter-spacing:0px;word-spacing:0px;fill:#000000;fill-opacity:1;stroke:none"
     xml:space="preserve"><tspan
       style="fill:#d40000;fill-opacity:1"
       y="1908.2249"
       x="2568.0571"
       id="tspan9789"
       sodipodi:role="line">Mary</tspan></text>
  <g
     transform="translate(1843.118,5430.6312)"
     id="g8316">
    <g
       id="g8310"
       transform="matrix(0.18672569,0,0,0.18260554,-889.04259,-4578.7683)">
      <rect
         ry="110.68856"
         y="-3126.1653"
         x="-2352.1318"
         height="1738.7328"
         width="876.28442"
         id="rect8304"
         style="opacity:1;fill:#000000;fill-opacity:1;stroke:#000000;stroke-width:1.00157475;stroke-miterlimit:4;stroke-dasharray:none;stroke-opacity:1" />
      <rect
         ry="55.344685"
         y="-3056.9849"
         x="-2289.8696"
         height="1480.4596"
         width="751.75977"
         id="rect8306"
         style="opacity:1;fill:#ffffff;fill-opacity:1;stroke:#000000;stroke-width:1.00157475;stroke-miterlimit:4;stroke-dasharray:none;stroke-opacity:1" />
      <circle
         r="59.956303"
         cy="-1479.673"
         cx="-1913.9896"
         id="circle8308"
         style="opacity:1;fill:#ffffff;fill-opacity:1;stroke:#000000;stroke-width:1.00157475;stroke-miterlimit:4;stroke-dasharray:none;stroke-opacity:1" />
    </g>
    <text
       xml:space="preserve"
       style="font-style:normal;font-weight:normal;font-size:66.66666412px;line-height:1.25;font-family:sans-serif;letter-spacing:0px;word-spacing:0px;fill:#000000;fill-opacity:1;stroke:none"
       x="-1322.0195"
       y="-5192.3516"
       id="text8314"><tspan
         sodipodi:role="line"
         id="tspan8312"
         x="-1322.0195"
         y="-5192.3516">user</tspan></text>
  </g>
  <g
     transform="translate(1843.118,5430.6312)"
     id="g8330">
    <g
       id="g8324"
       transform="matrix(0.20130373,0,0,0.20130373,-858.19915,-3957.5561)">
      <rect
         style="opacity:1;fill:#000000;fill-opacity:1;stroke:#000000;stroke-width:1.00157475;stroke-miterlimit:4;stroke-dasharray:none;stroke-opacity:1"
         id="rect8318"
         width="876.28442"
         height="1738.7328"
         x="-2352.1318"
         y="-3126.1653"
         ry="110.68856" />
      <rect
         style="opacity:1;fill:#ffffff;fill-opacity:1;stroke:#000000;stroke-width:1.00157475;stroke-miterlimit:4;stroke-dasharray:none;stroke-opacity:1"
         id="rect8320"
         width="751.75977"
         height="1480.4596"
         x="-2289.8696"
         y="-3056.9849"
         ry="55.344685" />
      <circle
         style="opacity:1;fill:#ffffff;fill-opacity:1;stroke:#000000;stroke-width:1.00157475;stroke-miterlimit:4;stroke-dasharray:none;stroke-opacity:1"
         id="circle8322"
         cx="-1913.9896"
         cy="-1479.673"
         r="59.956303" />
    </g>
    <text
       xml:space="preserve"
       style="font-style:normal;font-weight:normal;font-size:66.66666412px;line-height:1.25;font-family:sans-serif;letter-spacing:0px;word-spacing:0px;fill:#000000;fill-opacity:1;stroke:none"
       x="-1347.1219"
       y="-4152.3403"
       id="text8328"><tspan
         sodipodi:role="line"
         id="tspan8326"
         x="-1347.1219"
         y="-4152.3403">admin</tspan></text>
  </g>
  <g
     transform="translate(1840.812,5513.6476)"
     id="g8338">
    <path
       style="fill:#320f50;stroke-width:1.00416481"
       d="m -113.55365,-4896.7217 c -5.70386,-3.3721 -10.71536,-6.686 -11.13667,-7.3644 -0.4213,-0.6784 -0.77282,-61.5972 -0.78119,-135.3751 -0.0121,-105.7677 -0.27768,-134.4787 -1.25608,-135.7347 -1.36315,-1.75 -26.81776,-17.0792 -28.36049,-17.0792 -0.52777,0 -1.23078,0.723 -1.56217,1.6067 -0.33139,0.8837 -0.60255,60.9431 -0.60255,133.4653 0,109.3262 -0.22748,131.948 -1.33127,132.3814 -0.73222,0.2875 -6.04776,-2.1739 -11.81235,-5.4698 -8.58238,-4.9069 -10.679,-6.5735 -11.57368,-9.1997 -0.77357,-2.2707 -1.09264,-42.1446 -1.09264,-136.5551 v -133.3479 l -5.70796,-3.2753 c -3.13938,-1.8014 -9.41137,-5.5336 -13.93774,-8.2937 -4.52637,-2.7601 -8.88015,-4.7629 -9.67502,-4.4508 -1.25326,0.4921 -1.47875,18.2169 -1.69715,133.413 -0.25163,132.7292 -0.25363,132.8458 -2.27166,133.1415 -2.32371,0.3404 -18.96079,-9.0371 -21.55658,-12.1504 -1.63542,-1.9615 -1.73723,-9.9363 -1.73723,-136.1014 v -134.0179 l 2.51009,-2.3804 c 1.38053,-1.3091 5.69466,-4.1442 9.58699,-6.3 3.8923,-2.1559 8.58897,-4.7746 10.43712,-5.8194 l 3.36024,-1.8996 31.47565,18.5422 c 17.31163,10.1983 38.84641,22.8663 47.85508,28.1513 16.53603,9.701 28.64159,16.9088 43.181989,25.7112 4.367849,2.6442 9.840056,5.7829 12.160485,6.975 l 4.218912,2.1674 4.218949,-2.1674 c 3.535501,-1.8163 12.355338,-7.0431 23.447656,-13.8954 2.295493,-1.4181 2.307605,-1.4988 0.49636,-3.3004 -1.021181,-1.0158 -11.014235,-7.2152 -22.20683,-13.7766 -26.990816,-15.8226 -35.826181,-21.0289 -50.627201,-29.8322 -6.82474,-4.0592 -22.9063,-13.5668 -35.73684,-21.1279 -12.83051,-7.5611 -23.62192,-14.2117 -23.98089,-14.7791 -1.33245,-2.1061 0.59404,-3.8214 11.03814,-9.8281 7.49084,-4.3083 11.25931,-5.9397 12.56576,-5.4399 1.66348,0.6366 14.07899,7.8644 41.57364,24.2028 4.91383,2.92 12.06117,7.143 15.883041,9.3844 3.821868,2.2415 12.30935,7.27 18.861123,11.1745 25.227768,15.0344 58.64162,34.5028 60.205754,35.0785 2.275259,0.8375 30.625383,-15.3023 30.625383,-17.4351 0,-0.8844 -4.1189927,-3.491 -23.82454,-15.0767 -9.289872,-5.4618 -21.851819,-12.8811 -41.693015,-24.6245 -3.548859,-2.1005 -10.696235,-6.3198 -15.883038,-9.3763 -5.186803,-3.0565 -15.237778,-8.9946 -22.335532,-13.1957 -7.097719,-4.2012 -16.629426,-9.8254 -21.181556,-12.4983 -4.55215,-2.6729 -8.53838,-5.5579 -8.85831,-6.411 -0.53472,-1.4258 4.97714,-7.2934 6.85118,-7.2934 0.39099,0 3.42924,-1.657 6.75169,-3.6822 3.32248,-2.0252 7.06494,-3.6822 8.3166,-3.6822 1.984084,0 28.537959,15.2374 85.550255,49.0911 8.7356625,5.1872 23.9238188,14.1475 33.751443,19.9118 10.178075,5.9698 18.396183,11.4643 19.094662,12.7664 1.509419,2.8138 1.706873,25.4271 0.246399,28.2194 -0.555029,1.0612 -4.240393,3.8515 -8.189717,6.2008 -16.459226,9.7906 -62.375429,36.9594 -66.741995,39.4915 -1.637943,0.9498 -9.008671,5.2932 -16.379398,9.6519 -16.835717,9.956 -30.53679,18.0339 -38.21857,22.5331 -3.275851,1.9186 -6.49688,4.0293 -7.157778,4.6905 -1.462611,1.463 -1.956901,33.9284 -0.538678,35.3796 0.931876,0.9535 2.730582,0.014 22.586811,-11.7988 5.459811,-3.2481 15.510786,-9.2023 22.335532,-13.2315 6.824746,-4.0293 21.5662,-12.7338 32.758795,-19.3435 11.192595,-6.6098 28.352047,-16.7329 38.132116,-22.4959 9.780104,-5.763 18.554808,-10.4782 19.499437,-10.4782 2.506234,0 2.92255,2.0053 2.92255,14.0779 0,7.8434 -0.399966,11.4487 -1.438459,12.9658 -0.791169,1.1558 -5.593287,4.5257 -10.671442,7.4886 -5.07812,2.963 -12.806636,7.5368 -17.174449,10.1642 -4.3678492,2.6274 -21.789552,12.9128 -38.71493,22.8565 -16.925379,9.9438 -34.347081,20.2237 -38.71493,22.8443 -4.367849,2.6206 -13.240051,7.9056 -19.71602,11.7444 -6.476005,3.8389 -12.059888,7.7638 -12.408629,8.7222 -1.041595,2.862 -0.165358,34.3915 0.955778,34.3915 0.891909,0 12.982503,-7.0138 53.504403,-31.038 17.041293,-10.1033 60.095574,-35.5183 71.011741,-41.9182 9.517284,-5.5799 11.79664,-6.232 12.764388,-3.6515 1.279869,3.4129 0.642838,23.2767 -0.814751,25.4061 -1.32062,1.9293 -6.582515,5.2482 -33.3268614,21.0211 -5.7327838,3.381 -13.9969151,8.2878 -18.3647636,10.9039 -4.367849,2.6161 -21.789552,12.8923 -38.71493,22.836 -16.925379,9.9437 -34.458757,20.3264 -38.963074,23.0727 l -8.189717,4.9932 v 50.1464 c 0,46.9796 -0.411828,55.3575 -2.721218,55.3575 -0.43174,0 -5.45179,-2.7589 -11.15565,-6.1308 z"
       id="path8332"
       inkscape:connector-curvature="0" />
    <text
       xml:space="preserve"
       style="font-style:normal;font-weight:normal;font-size:66.66666412px;line-height:1.25;font-family:sans-serif;letter-spacing:0px;word-spacing:0px;fill:#000000;fill-opacity:1;stroke:none"
       x="-214.45909"
       y="-5362.9966"
       id="text8336"><tspan
         sodipodi:role="line"
         id="tspan8334"
         x="-214.45909"
         y="-5362.9966">Pusher</tspan></text>
  </g>
  <g
     transform="translate(1831.588,5347.6148)"
     id="g8356">
    <g
       id="g8350"
       transform="matrix(0.33139789,0,0,0.31898711,-406.36392,-4692.0955)">
      <path
         style="fill:#a5d5ee"
         d="m 873.03018,1638.9875 c -4.62965,-2.9258 -400.61736,-399.7952 -405.6933,-406.5966 -15.11511,-20.2532 -23.49811,-42.9962 -24.51173,-66.5 -0.4803,-11.137 -0.2581,-13.6604 2.03771,-23.1422 1.41723,-5.8532 4.15443,-14.6318 6.08265,-19.508 2.98399,-7.546 168.53448,-353.61291 171.54851,-358.60516 1.41136,-2.33768 344.72722,-173.95115 353.27263,-176.59056 16.80148,-5.18945 41.96555,-7.52515 56.24895,-5.22097 14.9994,2.41965 32.6673,9.84747 49.5146,20.81652 7.3746,4.80152 35.7411,32.7552 214.2522,211.1341 l 205.7523,205.59987 -0.2522,216.0082 -0.2523,216.0082 -93.5,0.5 -93.5,0.5 -0.2552,92.4038 c -0.1831,66.2538 -0.5714,92.7848 -1.3725,93.75 -0.9301,1.1207 -37.5684,1.3456 -218.7448,1.3425 -211.91971,0 -217.7062,-0.053 -220.62752,-1.8997 z"
         id="path8340"
         inkscape:connector-curvature="0" />
      <path
         style="fill:#44c3fd"
         d="m 672.36084,1436.6078 c -217.99655,-217.5099 -207.25017,-206.296 -216.78606,-226.2169 -7.03865,-14.7041 -12.02254,-35.0473 -12.03871,-49.1396 -0.009,-7.5308 2.59743,-20.0137 6.60572,-31.641 2.81287,-8.1596 145.94557,-308.73141 169.04282,-354.98179 l 5.37467,-10.76236 172.73545,-86.32659 c 131.05119,-65.4944 174.666,-86.85503 180.73545,-88.51635 14.25421,-3.90165 26.73322,-5.32548 43.00002,-4.9062 14.1124,0.36374 15.6308,0.60176 25.6601,4.02241 13.0347,4.44568 21.5654,8.676 33.9008,16.81129 8.5127,5.61421 29.5837,26.35482 214.6914,211.32446 l 205.2523,205.09933 -0.2523,215.0082 -0.2523,215.0082 -93.4442,0.2552 c -73.232,0.1999 -93.6152,0.5244 -94.2347,1.5 -0.4348,0.6846 -0.7974,42.7573 -0.8058,93.4948 l -0.015,92.25 -218.25,-0.033 -218.25002,-0.033 z"
         id="path8342"
         inkscape:connector-curvature="0" />
      <path
         style="fill:#3ec2fd"
         d="m 761.99885,1524.1009 c -106.53553,-106.2327 -113.2207,-113.1035 -116.32667,-119.556 -6.84414,-14.2185 -8.37974,-18.7999 -11.95051,-35.654 -1.42407,-6.7217 -1.64619,-38.1308 -2.14023,-302.6452 -0.53871,-288.42513 -0.59463,-295.19301 -2.45625,-297.24996 -1.04774,-1.15768 -2.28524,-2.10487 -2.75,-2.10487 -1.27833,0 -1.0809,580.89003 0.20148,592.78943 1.83384,17.0166 6.01322,29.3408 13.79013,40.6644 2.24895,3.2746 3.90149,6.1414 3.67231,6.3706 -1.0159,1.0159 -12.70684,-10.3944 -89.14532,-87.0052 -53.03047,-53.15 -83.17708,-84.1031 -87.02748,-89.3557 -17.00513,-23.198 -26.69368,-55.6811 -23.31543,-78.1704 2.86494,-19.0722 5.54965,-25.0499 93.61375,-208.43814 46.12605,-96.05476 84.75917,-175.81634 85.85137,-177.24796 1.12787,-1.47838 4.15212,-3.31177 7,-4.2436 2.7578,-0.90236 80.38918,-39.32998 172.51418,-85.39471 93.74417,-46.87436 170.56202,-84.69539 174.45386,-85.89182 15.96509,-4.908 39.85206,-7.21854 52.54616,-5.08269 10.1363,1.70549 20.6872,5.2189 31.5,10.48929 19.8277,9.66452 19.1852,9.08406 108.5,98.0147 45.925,45.72747 88,87.01869 93.5,91.75826 5.5,4.73957 60.9625,59.61296 123.25,121.94086 l 113.25,113.32341 v 214.1172 c 0,178.2361 -0.2256,214.3044 -1.3462,215.2345 -0.9656,0.8013 -27.7568,1.1894 -94.75,1.3724 l -93.4038,0.2552 -0.2552,92.25 -0.2552,92.25 -217.7448,-0.04 -217.74482,-0.04 z"
         id="path8344"
         inkscape:connector-curvature="0" />
      <path
         style="fill:#29b4f4"
         d="m 998.79358,1451.8909 -310.2366,-0.5 -14.06918,-14 c -7.73805,-7.7 -16.47249,-16.925 -19.40986,-20.5 -9.05621,-11.0221 -15.60984,-25.8751 -19.85549,-45 l -2.10896,-9.5 -0.54165,-294.6768 -0.54166,-294.67684 -2.06085,-2.76014 c -1.13346,-1.51808 -2.59596,-2.93852 -3.25,-3.15653 -1.65325,-0.55109 -1.72815,577.70621 -0.0768,592.98101 1.85815,17.1879 5.90597,28.9982 14.06566,41.0393 2.15894,3.1859 3.33938,5.75 2.64714,5.75 -1.83923,0 -164.85221,-163.151 -172.12663,-172.2723 -19.28253,-24.1783 -30.23443,-57.9105 -26.69161,-82.211 2.78716,-19.1173 5.35045,-24.83 93.62754,-208.66174 46.12605,-96.05476 84.76555,-175.82652 85.86555,-177.27058 1.1,-1.44406 3.575,-3.06379 5.5,-3.59941 4.71052,-1.31066 551.37562,-1.30533 570.56932,0.006 26.0365,1.77825 43.0906,7.0264 57.674,17.74836 3.4412,2.53001 59.4709,57.73625 124.5105,122.68054 l 118.2537,118.08013 v 214.1275 c 0,177.765 -0.2314,214.3165 -1.344,215.2398 -1.8095,1.5018 -113.9095,1.7556 -500.39642,1.1327 z"
         id="path8346"
         inkscape:connector-curvature="0" />
      <path
         style="fill:#01579a"
         d="M 972.02816,1111.5788 C 785.57927,924.95715 632.01768,770.87348 630.78018,769.17063 c -1.2375,-1.70284 -2.25,-3.36984 -2.25,-3.70443 0,-0.33459 131.2875,-0.4767 291.75,-0.3158 l 291.75002,0.29254 9.9834,2.29218 c 15.5968,3.58102 30.3919,10.34625 42.5166,19.44114 3.025,2.2691 57.1375,55.65514 120.25,118.63565 l 114.75,114.50999 v 215.2845 215.2845 h -94.252 -94.2521 z m -417.6705,206.5273 c -87.19456,-87.3405 -88.5876,-88.8594 -97.22109,-106.0037 -7.68776,-15.2664 -12.60639,-34.9249 -12.60639,-50.3847 0,-9.7572 2.01882,-19.8144 6.64574,-33.1072 3.13529,-9.0075 169.12201,-356.74182 171.4452,-359.16963 0.56534,-0.5908 0.97495,-0.40175 1.08333,0.5 0.0958,0.7975 0.21969,132.625 0.2752,292.95003 0.0766,221.1953 0.3904,293.4294 1.30113,299.5 1.9294,12.8606 4.45007,21.4243 8.96217,30.4481 2.32334,4.6465 4.10406,8.5684 3.95715,8.7153 -0.14691,0.1469 -37.87601,-37.4048 -83.84244,-83.4482 z"
         id="path8348"
         inkscape:connector-curvature="0" />
    </g>
    <text
       xml:space="preserve"
       style="font-style:normal;font-weight:normal;font-size:66.66666412px;line-height:1.25;font-family:sans-serif;letter-spacing:0px;word-spacing:0px;fill:#000000;fill-opacity:1;stroke:none"
       x="-246.74324"
       y="-4078.5479"
       id="text8354"><tspan
         sodipodi:role="line"
         id="tspan8352"
         x="-246.74324"
         y="-4078.5479">Dart server</tspan></text>
  </g>
  <text
     xml:space="preserve"
     style="font-style:normal;font-weight:normal;font-size:66.66666412px;line-height:1.25;font-family:sans-serif;letter-spacing:0px;word-spacing:0px;fill:#000000;fill-opacity:1;stroke:none"
     x="546.11749"
     y="-205.02808"
     id="text9684"><tspan
       sodipodi:role="line"
       id="tspan9682"
       x="546.11749"
       y="-205.02808"
       style="fill:#d40000;fill-opacity:1">iOS</tspan></text>
  <g
     id="g10423"
     transform="translate(-42.395508,1392.5294)">
    <g
       transform="translate(1840.812,5513.6476)"
       id="g6542">
      <path
         style="fill:#320f50;stroke-width:1.00416481"
         d="m -113.55365,-4896.7217 c -5.70386,-3.3721 -10.71536,-6.686 -11.13667,-7.3644 -0.4213,-0.6784 -0.77282,-61.5972 -0.78119,-135.3751 -0.0121,-105.7677 -0.27768,-134.4787 -1.25608,-135.7347 -1.36315,-1.75 -26.81776,-17.0792 -28.36049,-17.0792 -0.52777,0 -1.23078,0.723 -1.56217,1.6067 -0.33139,0.8837 -0.60255,60.9431 -0.60255,133.4653 0,109.3262 -0.22748,131.948 -1.33127,132.3814 -0.73222,0.2875 -6.04776,-2.1739 -11.81235,-5.4698 -8.58238,-4.9069 -10.679,-6.5735 -11.57368,-9.1997 -0.77357,-2.2707 -1.09264,-42.1446 -1.09264,-136.5551 v -133.3479 l -5.70796,-3.2753 c -3.13938,-1.8014 -9.41137,-5.5336 -13.93774,-8.2937 -4.52637,-2.7601 -8.88015,-4.7629 -9.67502,-4.4508 -1.25326,0.4921 -1.47875,18.2169 -1.69715,133.413 -0.25163,132.7292 -0.25363,132.8458 -2.27166,133.1415 -2.32371,0.3404 -18.96079,-9.0371 -21.55658,-12.1504 -1.63542,-1.9615 -1.73723,-9.9363 -1.73723,-136.1014 v -134.0179 l 2.51009,-2.3804 c 1.38053,-1.3091 5.69466,-4.1442 9.58699,-6.3 3.8923,-2.1559 8.58897,-4.7746 10.43712,-5.8194 l 3.36024,-1.8996 31.47565,18.5422 c 17.31163,10.1983 38.84641,22.8663 47.85508,28.1513 16.53603,9.701 28.64159,16.9088 43.181989,25.7112 4.367849,2.6442 9.840056,5.7829 12.160485,6.975 l 4.218912,2.1674 4.218949,-2.1674 c 3.535501,-1.8163 12.355338,-7.0431 23.447656,-13.8954 2.295493,-1.4181 2.307605,-1.4988 0.49636,-3.3004 -1.021181,-1.0158 -11.014235,-7.2152 -22.20683,-13.7766 -26.990816,-15.8226 -35.826181,-21.0289 -50.627201,-29.8322 -6.82474,-4.0592 -22.9063,-13.5668 -35.73684,-21.1279 -12.83051,-7.5611 -23.62192,-14.2117 -23.98089,-14.7791 -1.33245,-2.1061 0.59404,-3.8214 11.03814,-9.8281 7.49084,-4.3083 11.25931,-5.9397 12.56576,-5.4399 1.66348,0.6366 14.07899,7.8644 41.57364,24.2028 4.91383,2.92 12.06117,7.143 15.883041,9.3844 3.821868,2.2415 12.30935,7.27 18.861123,11.1745 25.227768,15.0344 58.64162,34.5028 60.205754,35.0785 2.275259,0.8375 30.625383,-15.3023 30.625383,-17.4351 0,-0.8844 -4.1189927,-3.491 -23.82454,-15.0767 -9.289872,-5.4618 -21.851819,-12.8811 -41.693015,-24.6245 -3.548859,-2.1005 -10.696235,-6.3198 -15.883038,-9.3763 -5.186803,-3.0565 -15.237778,-8.9946 -22.335532,-13.1957 -7.097719,-4.2012 -16.629426,-9.8254 -21.181556,-12.4983 -4.55215,-2.6729 -8.53838,-5.5579 -8.85831,-6.411 -0.53472,-1.4258 4.97714,-7.2934 6.85118,-7.2934 0.39099,0 3.42924,-1.657 6.75169,-3.6822 3.32248,-2.0252 7.06494,-3.6822 8.3166,-3.6822 1.984084,0 28.537959,15.2374 85.550255,49.0911 8.7356625,5.1872 23.9238188,14.1475 33.751443,19.9118 10.178075,5.9698 18.396183,11.4643 19.094662,12.7664 1.509419,2.8138 1.706873,25.4271 0.246399,28.2194 -0.555029,1.0612 -4.240393,3.8515 -8.189717,6.2008 -16.459226,9.7906 -62.375429,36.9594 -66.741995,39.4915 -1.637943,0.9498 -9.008671,5.2932 -16.379398,9.6519 -16.835717,9.956 -30.53679,18.0339 -38.21857,22.5331 -3.275851,1.9186 -6.49688,4.0293 -7.157778,4.6905 -1.462611,1.463 -1.956901,33.9284 -0.538678,35.3796 0.931876,0.9535 2.730582,0.014 22.586811,-11.7988 5.459811,-3.2481 15.510786,-9.2023 22.335532,-13.2315 6.824746,-4.0293 21.5662,-12.7338 32.758795,-19.3435 11.192595,-6.6098 28.352047,-16.7329 38.132116,-22.4959 9.780104,-5.763 18.554808,-10.4782 19.499437,-10.4782 2.506234,0 2.92255,2.0053 2.92255,14.0779 0,7.8434 -0.399966,11.4487 -1.438459,12.9658 -0.791169,1.1558 -5.593287,4.5257 -10.671442,7.4886 -5.07812,2.963 -12.806636,7.5368 -17.174449,10.1642 -4.3678492,2.6274 -21.789552,12.9128 -38.71493,22.8565 -16.925379,9.9438 -34.347081,20.2237 -38.71493,22.8443 -4.367849,2.6206 -13.240051,7.9056 -19.71602,11.7444 -6.476005,3.8389 -12.059888,7.7638 -12.408629,8.7222 -1.041595,2.862 -0.165358,34.3915 0.955778,34.3915 0.891909,0 12.982503,-7.0138 53.504403,-31.038 17.041293,-10.1033 60.095574,-35.5183 71.011741,-41.9182 9.517284,-5.5799 11.79664,-6.232 12.764388,-3.6515 1.279869,3.4129 0.642838,23.2767 -0.814751,25.4061 -1.32062,1.9293 -6.582515,5.2482 -33.3268614,21.0211 -5.7327838,3.381 -13.9969151,8.2878 -18.3647636,10.9039 -4.367849,2.6161 -21.789552,12.8923 -38.71493,22.836 -16.925379,9.9437 -34.458757,20.3264 -38.963074,23.0727 l -8.189717,4.9932 v 50.1464 c 0,46.9796 -0.411828,55.3575 -2.721218,55.3575 -0.43174,0 -5.45179,-2.7589 -11.15565,-6.1308 z"
         id="path6465"
         inkscape:connector-curvature="0" />
      <text
         xml:space="preserve"
         style="font-style:normal;font-weight:normal;font-size:66.66666412px;line-height:1.25;font-family:sans-serif;letter-spacing:0px;word-spacing:0px;fill:#000000;fill-opacity:1;stroke:none"
         x="-214.45909"
         y="-5362.9966"
         id="text6523"><tspan
           sodipodi:role="line"
           id="tspan6521"
           x="-214.45909"
           y="-5362.9966">Pusher</tspan></text>
    </g>
    <g
       transform="translate(1843.118,5430.6312)"
       id="g6550">
      <g
         id="g6499"
         transform="matrix(0.18672569,0,0,0.18260554,-889.04259,-4578.7683)">
        <rect
           ry="110.68856"
           y="-3126.1653"
           x="-2352.1318"
           height="1738.7328"
           width="876.28442"
           id="rect6486"
           style="opacity:1;fill:#000000;fill-opacity:1;stroke:#000000;stroke-width:1.00157475;stroke-miterlimit:4;stroke-dasharray:none;stroke-opacity:1" />
        <rect
           ry="55.344685"
           y="-3056.9849"
           x="-2289.8696"
           height="1480.4596"
           width="751.75977"
           id="rect6488"
           style="opacity:1;fill:#ffffff;fill-opacity:1;stroke:#000000;stroke-width:1.00157475;stroke-miterlimit:4;stroke-dasharray:none;stroke-opacity:1" />
        <circle
           r="59.956303"
           cy="-1479.673"
           cx="-1913.9896"
           id="path6494"
           style="opacity:1;fill:#ffffff;fill-opacity:1;stroke:#000000;stroke-width:1.00157475;stroke-miterlimit:4;stroke-dasharray:none;stroke-opacity:1" />
      </g>
      <text
         xml:space="preserve"
         style="font-style:normal;font-weight:normal;font-size:66.66666412px;line-height:1.25;font-family:sans-serif;letter-spacing:0px;word-spacing:0px;fill:#000000;fill-opacity:1;stroke:none"
         x="-1322.0195"
         y="-5192.3516"
         id="text6515"><tspan
           sodipodi:role="line"
           id="tspan6513"
           x="-1322.0195"
           y="-5192.3516">user</tspan></text>
    </g>
    <g
       transform="translate(1843.118,5430.6312)"
       id="g6558">
      <g
         id="g6507"
         transform="matrix(0.20130373,0,0,0.20130373,-858.19915,-3957.5561)">
        <rect
           style="opacity:1;fill:#000000;fill-opacity:1;stroke:#000000;stroke-width:1.00157475;stroke-miterlimit:4;stroke-dasharray:none;stroke-opacity:1"
           id="rect6501"
           width="876.28442"
           height="1738.7328"
           x="-2352.1318"
           y="-3126.1653"
           ry="110.68856" />
        <rect
           style="opacity:1;fill:#ffffff;fill-opacity:1;stroke:#000000;stroke-width:1.00157475;stroke-miterlimit:4;stroke-dasharray:none;stroke-opacity:1"
           id="rect6503"
           width="751.75977"
           height="1480.4596"
           x="-2289.8696"
           y="-3056.9849"
           ry="55.344685" />
        <circle
           style="opacity:1;fill:#ffffff;fill-opacity:1;stroke:#000000;stroke-width:1.00157475;stroke-miterlimit:4;stroke-dasharray:none;stroke-opacity:1"
           id="circle6505"
           cx="-1913.9896"
           cy="-1479.673"
           r="59.956303" />
      </g>
      <text
         xml:space="preserve"
         style="font-style:normal;font-weight:normal;font-size:66.66666412px;line-height:1.25;font-family:sans-serif;letter-spacing:0px;word-spacing:0px;fill:#000000;fill-opacity:1;stroke:none"
         x="-1347.1219"
         y="-4152.3403"
         id="text6519"><tspan
           sodipodi:role="line"
           id="tspan6517"
           x="-1347.1219"
           y="-4152.3403">admin</tspan></text>
    </g>
    <g
       transform="translate(1831.588,5347.6148)"
       id="g6537">
      <g
         id="g5794"
         transform="matrix(0.33139789,0,0,0.31898711,-406.36392,-4692.0955)">
        <path
           style="fill:#a5d5ee"
           d="m 873.03018,1638.9875 c -4.62965,-2.9258 -400.61736,-399.7952 -405.6933,-406.5966 -15.11511,-20.2532 -23.49811,-42.9962 -24.51173,-66.5 -0.4803,-11.137 -0.2581,-13.6604 2.03771,-23.1422 1.41723,-5.8532 4.15443,-14.6318 6.08265,-19.508 2.98399,-7.546 168.53448,-353.61291 171.54851,-358.60516 1.41136,-2.33768 344.72722,-173.95115 353.27263,-176.59056 16.80148,-5.18945 41.96555,-7.52515 56.24895,-5.22097 14.9994,2.41965 32.6673,9.84747 49.5146,20.81652 7.3746,4.80152 35.7411,32.7552 214.2522,211.1341 l 205.7523,205.59987 -0.2522,216.0082 -0.2523,216.0082 -93.5,0.5 -93.5,0.5 -0.2552,92.4038 c -0.1831,66.2538 -0.5714,92.7848 -1.3725,93.75 -0.9301,1.1207 -37.5684,1.3456 -218.7448,1.3425 -211.91971,0 -217.7062,-0.053 -220.62752,-1.8997 z"
           id="path5804"
           inkscape:connector-curvature="0" />
        <path
           style="fill:#44c3fd"
           d="m 672.36084,1436.6078 c -217.99655,-217.5099 -207.25017,-206.296 -216.78606,-226.2169 -7.03865,-14.7041 -12.02254,-35.0473 -12.03871,-49.1396 -0.009,-7.5308 2.59743,-20.0137 6.60572,-31.641 2.81287,-8.1596 145.94557,-308.73141 169.04282,-354.98179 l 5.37467,-10.76236 172.73545,-86.32659 c 131.05119,-65.4944 174.666,-86.85503 180.73545,-88.51635 14.25421,-3.90165 26.73322,-5.32548 43.00002,-4.9062 14.1124,0.36374 15.6308,0.60176 25.6601,4.02241 13.0347,4.44568 21.5654,8.676 33.9008,16.81129 8.5127,5.61421 29.5837,26.35482 214.6914,211.32446 l 205.2523,205.09933 -0.2523,215.0082 -0.2523,215.0082 -93.4442,0.2552 c -73.232,0.1999 -93.6152,0.5244 -94.2347,1.5 -0.4348,0.6846 -0.7974,42.7573 -0.8058,93.4948 l -0.015,92.25 -218.25,-0.033 -218.25002,-0.033 z"
           id="path5802"
           inkscape:connector-curvature="0" />
        <path
           style="fill:#3ec2fd"
           d="m 761.99885,1524.1009 c -106.53553,-106.2327 -113.2207,-113.1035 -116.32667,-119.556 -6.84414,-14.2185 -8.37974,-18.7999 -11.95051,-35.654 -1.42407,-6.7217 -1.64619,-38.1308 -2.14023,-302.6452 -0.53871,-288.42513 -0.59463,-295.19301 -2.45625,-297.24996 -1.04774,-1.15768 -2.28524,-2.10487 -2.75,-2.10487 -1.27833,0 -1.0809,580.89003 0.20148,592.78943 1.83384,17.0166 6.01322,29.3408 13.79013,40.6644 2.24895,3.2746 3.90149,6.1414 3.67231,6.3706 -1.0159,1.0159 -12.70684,-10.3944 -89.14532,-87.0052 -53.03047,-53.15 -83.17708,-84.1031 -87.02748,-89.3557 -17.00513,-23.198 -26.69368,-55.6811 -23.31543,-78.1704 2.86494,-19.0722 5.54965,-25.0499 93.61375,-208.43814 46.12605,-96.05476 84.75917,-175.81634 85.85137,-177.24796 1.12787,-1.47838 4.15212,-3.31177 7,-4.2436 2.7578,-0.90236 80.38918,-39.32998 172.51418,-85.39471 93.74417,-46.87436 170.56202,-84.69539 174.45386,-85.89182 15.96509,-4.908 39.85206,-7.21854 52.54616,-5.08269 10.1363,1.70549 20.6872,5.2189 31.5,10.48929 19.8277,9.66452 19.1852,9.08406 108.5,98.0147 45.925,45.72747 88,87.01869 93.5,91.75826 5.5,4.73957 60.9625,59.61296 123.25,121.94086 l 113.25,113.32341 v 214.1172 c 0,178.2361 -0.2256,214.3044 -1.3462,215.2345 -0.9656,0.8013 -27.7568,1.1894 -94.75,1.3724 l -93.4038,0.2552 -0.2552,92.25 -0.2552,92.25 -217.7448,-0.04 -217.74482,-0.04 z"
           id="path5800"
           inkscape:connector-curvature="0" />
        <path
           style="fill:#29b4f4"
           d="m 998.79358,1451.8909 -310.2366,-0.5 -14.06918,-14 c -7.73805,-7.7 -16.47249,-16.925 -19.40986,-20.5 -9.05621,-11.0221 -15.60984,-25.8751 -19.85549,-45 l -2.10896,-9.5 -0.54165,-294.6768 -0.54166,-294.67684 -2.06085,-2.76014 c -1.13346,-1.51808 -2.59596,-2.93852 -3.25,-3.15653 -1.65325,-0.55109 -1.72815,577.70621 -0.0768,592.98101 1.85815,17.1879 5.90597,28.9982 14.06566,41.0393 2.15894,3.1859 3.33938,5.75 2.64714,5.75 -1.83923,0 -164.85221,-163.151 -172.12663,-172.2723 -19.28253,-24.1783 -30.23443,-57.9105 -26.69161,-82.211 2.78716,-19.1173 5.35045,-24.83 93.62754,-208.66174 46.12605,-96.05476 84.76555,-175.82652 85.86555,-177.27058 1.1,-1.44406 3.575,-3.06379 5.5,-3.59941 4.71052,-1.31066 551.37562,-1.30533 570.56932,0.006 26.0365,1.77825 43.0906,7.0264 57.674,17.74836 3.4412,2.53001 59.4709,57.73625 124.5105,122.68054 l 118.2537,118.08013 v 214.1275 c 0,177.765 -0.2314,214.3165 -1.344,215.2398 -1.8095,1.5018 -113.9095,1.7556 -500.39642,1.1327 z"
           id="path5798"
           inkscape:connector-curvature="0" />
        <path
           style="fill:#01579a"
           d="M 972.02816,1111.5788 C 785.57927,924.95715 632.01768,770.87348 630.78018,769.17063 c -1.2375,-1.70284 -2.25,-3.36984 -2.25,-3.70443 0,-0.33459 131.2875,-0.4767 291.75,-0.3158 l 291.75002,0.29254 9.9834,2.29218 c 15.5968,3.58102 30.3919,10.34625 42.5166,19.44114 3.025,2.2691 57.1375,55.65514 120.25,118.63565 l 114.75,114.50999 v 215.2845 215.2845 h -94.252 -94.2521 z m -417.6705,206.5273 c -87.19456,-87.3405 -88.5876,-88.8594 -97.22109,-106.0037 -7.68776,-15.2664 -12.60639,-34.9249 -12.60639,-50.3847 0,-9.7572 2.01882,-19.8144 6.64574,-33.1072 3.13529,-9.0075 169.12201,-356.74182 171.4452,-359.16963 0.56534,-0.5908 0.97495,-0.40175 1.08333,0.5 0.0958,0.7975 0.21969,132.625 0.2752,292.95003 0.0766,221.1953 0.3904,293.4294 1.30113,299.5 1.9294,12.8606 4.45007,21.4243 8.96217,30.4481 2.32334,4.6465 4.10406,8.5684 3.95715,8.7153 -0.14691,0.1469 -37.87601,-37.4048 -83.84244,-83.4482 z"
           id="path5796"
           inkscape:connector-curvature="0" />
      </g>
      <text
         xml:space="preserve"
         style="font-style:normal;font-weight:normal;font-size:66.66666412px;line-height:1.25;font-family:sans-serif;letter-spacing:0px;word-spacing:0px;fill:#000000;fill-opacity:1;stroke:none"
         x="-246.74324"
         y="-4078.5479"
         id="text6527"><tspan
           sodipodi:role="line"
           id="tspan6525"
           x="-246.74324"
           y="-4078.5479">Dart server</tspan></text>
    </g>
    <path
       style="fill:#d40000;stroke:#d40000;stroke-width:5;stroke-linecap:butt;stroke-linejoin:miter;stroke-miterlimit:4;stroke-dasharray:none;stroke-opacity:1;marker-end:url(#marker10048)"
       d="M 733.92656,415.28291 H 1538.7245"
       id="path10044"
       inkscape:connector-curvature="0" />
    <text
       transform="rotate(0.10505983)"
       id="text10333"
       y="398.57047"
       x="988.68665"
       style="font-style:normal;font-weight:normal;font-size:66.66666412px;line-height:1.25;font-family:sans-serif;letter-spacing:0px;word-spacing:0px;fill:#000000;fill-opacity:1;stroke:none"
       xml:space="preserve"><tspan
         style="fill:#d40000;fill-opacity:1"
         y="398.57047"
         x="988.68665"
         id="tspan10331"
         sodipodi:role="line">token</tspan></text>
  </g>
  <g
     id="g1047"
     transform="translate(2445.8947,-391.34315)">
    <g
       transform="translate(1843.118,5430.6312)"
       id="g991">
      <g
         id="g985"
         transform="matrix(0.18672569,0,0,0.18260554,-889.04259,-4578.7683)">
        <rect
           ry="110.68856"
           y="-3126.1653"
           x="-2352.1318"
           height="1738.7328"
           width="876.28442"
           id="rect979"
           style="opacity:1;fill:#000000;fill-opacity:1;stroke:#000000;stroke-width:1.00157475;stroke-miterlimit:4;stroke-dasharray:none;stroke-opacity:1" />
        <rect
           ry="55.344685"
           y="-3056.9849"
           x="-2289.8696"
           height="1480.4596"
           width="751.75977"
           id="rect981"
           style="opacity:1;fill:#ffffff;fill-opacity:1;stroke:#000000;stroke-width:1.00157475;stroke-miterlimit:4;stroke-dasharray:none;stroke-opacity:1" />
        <circle
           r="59.956303"
           cy="-1479.673"
           cx="-1913.9896"
           id="circle983"
           style="opacity:1;fill:#ffffff;fill-opacity:1;stroke:#000000;stroke-width:1.00157475;stroke-miterlimit:4;stroke-dasharray:none;stroke-opacity:1" />
      </g>
      <text
         xml:space="preserve"
         style="font-style:normal;font-weight:normal;font-size:66.66666412px;line-height:1.25;font-family:sans-serif;letter-spacing:0px;word-spacing:0px;fill:#000000;fill-opacity:1;stroke:none"
         x="-1322.0195"
         y="-5192.3516"
         id="text989"><tspan
           sodipodi:role="line"
           id="tspan987"
           x="-1322.0195"
           y="-5192.3516">user</tspan></text>
    </g>
    <g
       transform="translate(1843.118,5430.6312)"
       id="g1005">
      <g
         id="g999"
         transform="matrix(0.20130373,0,0,0.20130373,-858.19915,-3957.5561)">
        <rect
           style="opacity:1;fill:#000000;fill-opacity:1;stroke:#000000;stroke-width:1.00157475;stroke-miterlimit:4;stroke-dasharray:none;stroke-opacity:1"
           id="rect993"
           width="876.28442"
           height="1738.7328"
           x="-2352.1318"
           y="-3126.1653"
           ry="110.68856" />
        <rect
           style="opacity:1;fill:#ffffff;fill-opacity:1;stroke:#000000;stroke-width:1.00157475;stroke-miterlimit:4;stroke-dasharray:none;stroke-opacity:1"
           id="rect995"
           width="751.75977"
           height="1480.4596"
           x="-2289.8696"
           y="-3056.9849"
           ry="55.344685" />
        <circle
           style="opacity:1;fill:#ffffff;fill-opacity:1;stroke:#000000;stroke-width:1.00157475;stroke-miterlimit:4;stroke-dasharray:none;stroke-opacity:1"
           id="circle997"
           cx="-1913.9896"
           cy="-1479.673"
           r="59.956303" />
      </g>
      <text
         xml:space="preserve"
         style="font-style:normal;font-weight:normal;font-size:66.66666412px;line-height:1.25;font-family:sans-serif;letter-spacing:0px;word-spacing:0px;fill:#000000;fill-opacity:1;stroke:none"
         x="-1347.1219"
         y="-4152.3403"
         id="text1003"><tspan
           sodipodi:role="line"
           id="tspan1001"
           x="-1347.1219"
           y="-4152.3403">admin</tspan></text>
    </g>
    <g
       transform="translate(1840.812,5513.6476)"
       id="g1013">
      <path
         style="fill:#320f50;stroke-width:1.00416481"
         d="m -113.55365,-4896.7217 c -5.70386,-3.3721 -10.71536,-6.686 -11.13667,-7.3644 -0.4213,-0.6784 -0.77282,-61.5972 -0.78119,-135.3751 -0.0121,-105.7677 -0.27768,-134.4787 -1.25608,-135.7347 -1.36315,-1.75 -26.81776,-17.0792 -28.36049,-17.0792 -0.52777,0 -1.23078,0.723 -1.56217,1.6067 -0.33139,0.8837 -0.60255,60.9431 -0.60255,133.4653 0,109.3262 -0.22748,131.948 -1.33127,132.3814 -0.73222,0.2875 -6.04776,-2.1739 -11.81235,-5.4698 -8.58238,-4.9069 -10.679,-6.5735 -11.57368,-9.1997 -0.77357,-2.2707 -1.09264,-42.1446 -1.09264,-136.5551 v -133.3479 l -5.70796,-3.2753 c -3.13938,-1.8014 -9.41137,-5.5336 -13.93774,-8.2937 -4.52637,-2.7601 -8.88015,-4.7629 -9.67502,-4.4508 -1.25326,0.4921 -1.47875,18.2169 -1.69715,133.413 -0.25163,132.7292 -0.25363,132.8458 -2.27166,133.1415 -2.32371,0.3404 -18.96079,-9.0371 -21.55658,-12.1504 -1.63542,-1.9615 -1.73723,-9.9363 -1.73723,-136.1014 v -134.0179 l 2.51009,-2.3804 c 1.38053,-1.3091 5.69466,-4.1442 9.58699,-6.3 3.8923,-2.1559 8.58897,-4.7746 10.43712,-5.8194 l 3.36024,-1.8996 31.47565,18.5422 c 17.31163,10.1983 38.84641,22.8663 47.85508,28.1513 16.53603,9.701 28.64159,16.9088 43.181989,25.7112 4.367849,2.6442 9.840056,5.7829 12.160485,6.975 l 4.218912,2.1674 4.218949,-2.1674 c 3.535501,-1.8163 12.355338,-7.0431 23.447656,-13.8954 2.295493,-1.4181 2.307605,-1.4988 0.49636,-3.3004 -1.021181,-1.0158 -11.014235,-7.2152 -22.20683,-13.7766 -26.990816,-15.8226 -35.826181,-21.0289 -50.627201,-29.8322 -6.82474,-4.0592 -22.9063,-13.5668 -35.73684,-21.1279 -12.83051,-7.5611 -23.62192,-14.2117 -23.98089,-14.7791 -1.33245,-2.1061 0.59404,-3.8214 11.03814,-9.8281 7.49084,-4.3083 11.25931,-5.9397 12.56576,-5.4399 1.66348,0.6366 14.07899,7.8644 41.57364,24.2028 4.91383,2.92 12.06117,7.143 15.883041,9.3844 3.821868,2.2415 12.30935,7.27 18.861123,11.1745 25.227768,15.0344 58.64162,34.5028 60.205754,35.0785 2.275259,0.8375 30.625383,-15.3023 30.625383,-17.4351 0,-0.8844 -4.1189927,-3.491 -23.82454,-15.0767 -9.289872,-5.4618 -21.851819,-12.8811 -41.693015,-24.6245 -3.548859,-2.1005 -10.696235,-6.3198 -15.883038,-9.3763 -5.186803,-3.0565 -15.237778,-8.9946 -22.335532,-13.1957 -7.097719,-4.2012 -16.629426,-9.8254 -21.181556,-12.4983 -4.55215,-2.6729 -8.53838,-5.5579 -8.85831,-6.411 -0.53472,-1.4258 4.97714,-7.2934 6.85118,-7.2934 0.39099,0 3.42924,-1.657 6.75169,-3.6822 3.32248,-2.0252 7.06494,-3.6822 8.3166,-3.6822 1.984084,0 28.537959,15.2374 85.550255,49.0911 8.7356625,5.1872 23.9238188,14.1475 33.751443,19.9118 10.178075,5.9698 18.396183,11.4643 19.094662,12.7664 1.509419,2.8138 1.706873,25.4271 0.246399,28.2194 -0.555029,1.0612 -4.240393,3.8515 -8.189717,6.2008 -16.459226,9.7906 -62.375429,36.9594 -66.741995,39.4915 -1.637943,0.9498 -9.008671,5.2932 -16.379398,9.6519 -16.835717,9.956 -30.53679,18.0339 -38.21857,22.5331 -3.275851,1.9186 -6.49688,4.0293 -7.157778,4.6905 -1.462611,1.463 -1.956901,33.9284 -0.538678,35.3796 0.931876,0.9535 2.730582,0.014 22.586811,-11.7988 5.459811,-3.2481 15.510786,-9.2023 22.335532,-13.2315 6.824746,-4.0293 21.5662,-12.7338 32.758795,-19.3435 11.192595,-6.6098 28.352047,-16.7329 38.132116,-22.4959 9.780104,-5.763 18.554808,-10.4782 19.499437,-10.4782 2.506234,0 2.92255,2.0053 2.92255,14.0779 0,7.8434 -0.399966,11.4487 -1.438459,12.9658 -0.791169,1.1558 -5.593287,4.5257 -10.671442,7.4886 -5.07812,2.963 -12.806636,7.5368 -17.174449,10.1642 -4.3678492,2.6274 -21.789552,12.9128 -38.71493,22.8565 -16.925379,9.9438 -34.347081,20.2237 -38.71493,22.8443 -4.367849,2.6206 -13.240051,7.9056 -19.71602,11.7444 -6.476005,3.8389 -12.059888,7.7638 -12.408629,8.7222 -1.041595,2.862 -0.165358,34.3915 0.955778,34.3915 0.891909,0 12.982503,-7.0138 53.504403,-31.038 17.041293,-10.1033 60.095574,-35.5183 71.011741,-41.9182 9.517284,-5.5799 11.79664,-6.232 12.764388,-3.6515 1.279869,3.4129 0.642838,23.2767 -0.814751,25.4061 -1.32062,1.9293 -6.582515,5.2482 -33.3268614,21.0211 -5.7327838,3.381 -13.9969151,8.2878 -18.3647636,10.9039 -4.367849,2.6161 -21.789552,12.8923 -38.71493,22.836 -16.925379,9.9437 -34.458757,20.3264 -38.963074,23.0727 l -8.189717,4.9932 v 50.1464 c 0,46.9796 -0.411828,55.3575 -2.721218,55.3575 -0.43174,0 -5.45179,-2.7589 -11.15565,-6.1308 z"
         id="path1007"
         inkscape:connector-curvature="0" />
      <text
         xml:space="preserve"
         style="font-style:normal;font-weight:normal;font-size:66.66666412px;line-height:1.25;font-family:sans-serif;letter-spacing:0px;word-spacing:0px;fill:#000000;fill-opacity:1;stroke:none"
         x="-214.45909"
         y="-5362.9966"
         id="text1011"><tspan
           sodipodi:role="line"
           id="tspan1009"
           x="-214.45909"
           y="-5362.9966">Pusher</tspan></text>
    </g>
    <g
       transform="translate(1831.588,5347.6148)"
       id="g1031">
      <g
         id="g1025"
         transform="matrix(0.33139789,0,0,0.31898711,-406.36392,-4692.0955)">
        <path
           style="fill:#a5d5ee"
           d="m 873.03018,1638.9875 c -4.62965,-2.9258 -400.61736,-399.7952 -405.6933,-406.5966 -15.11511,-20.2532 -23.49811,-42.9962 -24.51173,-66.5 -0.4803,-11.137 -0.2581,-13.6604 2.03771,-23.1422 1.41723,-5.8532 4.15443,-14.6318 6.08265,-19.508 2.98399,-7.546 168.53448,-353.61291 171.54851,-358.60516 1.41136,-2.33768 344.72722,-173.95115 353.27263,-176.59056 16.80148,-5.18945 41.96555,-7.52515 56.24895,-5.22097 14.9994,2.41965 32.6673,9.84747 49.5146,20.81652 7.3746,4.80152 35.7411,32.7552 214.2522,211.1341 l 205.7523,205.59987 -0.2522,216.0082 -0.2523,216.0082 -93.5,0.5 -93.5,0.5 -0.2552,92.4038 c -0.1831,66.2538 -0.5714,92.7848 -1.3725,93.75 -0.9301,1.1207 -37.5684,1.3456 -218.7448,1.3425 -211.91971,0 -217.7062,-0.053 -220.62752,-1.8997 z"
           id="path1015"
           inkscape:connector-curvature="0" />
        <path
           style="fill:#44c3fd"
           d="m 672.36084,1436.6078 c -217.99655,-217.5099 -207.25017,-206.296 -216.78606,-226.2169 -7.03865,-14.7041 -12.02254,-35.0473 -12.03871,-49.1396 -0.009,-7.5308 2.59743,-20.0137 6.60572,-31.641 2.81287,-8.1596 145.94557,-308.73141 169.04282,-354.98179 l 5.37467,-10.76236 172.73545,-86.32659 c 131.05119,-65.4944 174.666,-86.85503 180.73545,-88.51635 14.25421,-3.90165 26.73322,-5.32548 43.00002,-4.9062 14.1124,0.36374 15.6308,0.60176 25.6601,4.02241 13.0347,4.44568 21.5654,8.676 33.9008,16.81129 8.5127,5.61421 29.5837,26.35482 214.6914,211.32446 l 205.2523,205.09933 -0.2523,215.0082 -0.2523,215.0082 -93.4442,0.2552 c -73.232,0.1999 -93.6152,0.5244 -94.2347,1.5 -0.4348,0.6846 -0.7974,42.7573 -0.8058,93.4948 l -0.015,92.25 -218.25,-0.033 -218.25002,-0.033 z"
           id="path1017"
           inkscape:connector-curvature="0" />
        <path
           style="fill:#3ec2fd"
           d="m 761.99885,1524.1009 c -106.53553,-106.2327 -113.2207,-113.1035 -116.32667,-119.556 -6.84414,-14.2185 -8.37974,-18.7999 -11.95051,-35.654 -1.42407,-6.7217 -1.64619,-38.1308 -2.14023,-302.6452 -0.53871,-288.42513 -0.59463,-295.19301 -2.45625,-297.24996 -1.04774,-1.15768 -2.28524,-2.10487 -2.75,-2.10487 -1.27833,0 -1.0809,580.89003 0.20148,592.78943 1.83384,17.0166 6.01322,29.3408 13.79013,40.6644 2.24895,3.2746 3.90149,6.1414 3.67231,6.3706 -1.0159,1.0159 -12.70684,-10.3944 -89.14532,-87.0052 -53.03047,-53.15 -83.17708,-84.1031 -87.02748,-89.3557 -17.00513,-23.198 -26.69368,-55.6811 -23.31543,-78.1704 2.86494,-19.0722 5.54965,-25.0499 93.61375,-208.43814 46.12605,-96.05476 84.75917,-175.81634 85.85137,-177.24796 1.12787,-1.47838 4.15212,-3.31177 7,-4.2436 2.7578,-0.90236 80.38918,-39.32998 172.51418,-85.39471 93.74417,-46.87436 170.56202,-84.69539 174.45386,-85.89182 15.96509,-4.908 39.85206,-7.21854 52.54616,-5.08269 10.1363,1.70549 20.6872,5.2189 31.5,10.48929 19.8277,9.66452 19.1852,9.08406 108.5,98.0147 45.925,45.72747 88,87.01869 93.5,91.75826 5.5,4.73957 60.9625,59.61296 123.25,121.94086 l 113.25,113.32341 v 214.1172 c 0,178.2361 -0.2256,214.3044 -1.3462,215.2345 -0.9656,0.8013 -27.7568,1.1894 -94.75,1.3724 l -93.4038,0.2552 -0.2552,92.25 -0.2552,92.25 -217.7448,-0.04 -217.74482,-0.04 z"
           id="path1019"
           inkscape:connector-curvature="0" />
        <path
           style="fill:#29b4f4"
           d="m 998.79358,1451.8909 -310.2366,-0.5 -14.06918,-14 c -7.73805,-7.7 -16.47249,-16.925 -19.40986,-20.5 -9.05621,-11.0221 -15.60984,-25.8751 -19.85549,-45 l -2.10896,-9.5 -0.54165,-294.6768 -0.54166,-294.67684 -2.06085,-2.76014 c -1.13346,-1.51808 -2.59596,-2.93852 -3.25,-3.15653 -1.65325,-0.55109 -1.72815,577.70621 -0.0768,592.98101 1.85815,17.1879 5.90597,28.9982 14.06566,41.0393 2.15894,3.1859 3.33938,5.75 2.64714,5.75 -1.83923,0 -164.85221,-163.151 -172.12663,-172.2723 -19.28253,-24.1783 -30.23443,-57.9105 -26.69161,-82.211 2.78716,-19.1173 5.35045,-24.83 93.62754,-208.66174 46.12605,-96.05476 84.76555,-175.82652 85.86555,-177.27058 1.1,-1.44406 3.575,-3.06379 5.5,-3.59941 4.71052,-1.31066 551.37562,-1.30533 570.56932,0.006 26.0365,1.77825 43.0906,7.0264 57.674,17.74836 3.4412,2.53001 59.4709,57.73625 124.5105,122.68054 l 118.2537,118.08013 v 214.1275 c 0,177.765 -0.2314,214.3165 -1.344,215.2398 -1.8095,1.5018 -113.9095,1.7556 -500.39642,1.1327 z"
           id="path1021"
           inkscape:connector-curvature="0" />
        <path
           style="fill:#01579a"
           d="M 972.02816,1111.5788 C 785.57927,924.95715 632.01768,770.87348 630.78018,769.17063 c -1.2375,-1.70284 -2.25,-3.36984 -2.25,-3.70443 0,-0.33459 131.2875,-0.4767 291.75,-0.3158 l 291.75002,0.29254 9.9834,2.29218 c 15.5968,3.58102 30.3919,10.34625 42.5166,19.44114 3.025,2.2691 57.1375,55.65514 120.25,118.63565 l 114.75,114.50999 v 215.2845 215.2845 h -94.252 -94.2521 z m -417.6705,206.5273 c -87.19456,-87.3405 -88.5876,-88.8594 -97.22109,-106.0037 -7.68776,-15.2664 -12.60639,-34.9249 -12.60639,-50.3847 0,-9.7572 2.01882,-19.8144 6.64574,-33.1072 3.13529,-9.0075 169.12201,-356.74182 171.4452,-359.16963 0.56534,-0.5908 0.97495,-0.40175 1.08333,0.5 0.0958,0.7975 0.21969,132.625 0.2752,292.95003 0.0766,221.1953 0.3904,293.4294 1.30113,299.5 1.9294,12.8606 4.45007,21.4243 8.96217,30.4481 2.32334,4.6465 4.10406,8.5684 3.95715,8.7153 -0.14691,0.1469 -37.87601,-37.4048 -83.84244,-83.4482 z"
           id="path1023"
           inkscape:connector-curvature="0" />
      </g>
      <text
         xml:space="preserve"
         style="font-style:normal;font-weight:normal;font-size:66.66666412px;line-height:1.25;font-family:sans-serif;letter-spacing:0px;word-spacing:0px;fill:#000000;fill-opacity:1;stroke:none"
         x="-246.74324"
         y="-4078.5479"
         id="text1029"><tspan
           sodipodi:role="line"
           id="tspan1027"
           x="-246.74324"
           y="-4078.5479">Dart server</tspan></text>
    </g>
    <path
       inkscape:connector-curvature="0"
       id="path1033"
       d="M 1547.083,424.8903 H 742.28504"
       style="fill:#d40000;stroke:#d40000;stroke-width:5;stroke-linecap:butt;stroke-linejoin:miter;stroke-miterlimit:4;stroke-dasharray:none;stroke-opacity:1;marker-end:url(#Arrow2Lend)" />
    <text
       id="text1037"
       y="763.20764"
       x="1786.4161"
       style="font-style:normal;font-weight:normal;font-size:66.66666412px;line-height:1.25;font-family:sans-serif;letter-spacing:0px;word-spacing:0px;fill:#000000;fill-opacity:1;stroke:none"
       xml:space="preserve"><tspan
         style="fill:#d40000;fill-opacity:1"
         y="763.20764"
         x="1786.4161"
         id="tspan1035"
         sodipodi:role="line">Mary</tspan></text>
    <path
       style="fill:#d40000;stroke:#d40000;stroke-width:5;stroke-linecap:butt;stroke-linejoin:miter;stroke-miterlimit:4;stroke-dasharray:none;stroke-opacity:1;marker-end:url(#marker7412)"
       d="M 717.62056,1021.8648 H 1522.4185"
       id="path1039"
       inkscape:connector-curvature="0" />
    <path
       inkscape:connector-curvature="0"
       id="path1041"
       d="m 1738.2158,668.2948 v 136.9701 0"
       style="fill:#d40000;fill-opacity:1;stroke:#d40000;stroke-width:5;stroke-linecap:butt;stroke-linejoin:miter;stroke-miterlimit:4;stroke-dasharray:none;stroke-opacity:1;marker-start:url(#Arrow2Lstart)" />
    <text
       xml:space="preserve"
       style="font-style:normal;font-weight:normal;font-size:66.66666412px;line-height:1.25;font-family:sans-serif;letter-spacing:0px;word-spacing:0px;fill:#000000;fill-opacity:1;stroke:none"
       x="311.31158"
       y="440.68811"
       id="text1045"><tspan
         sodipodi:role="line"
         id="tspan1043"
         x="311.31158"
         y="440.68811"
         style="fill:#d40000;fill-opacity:1">Mary</tspan></text>
  </g>
  <ellipse
     style="opacity:1;fill:none;fill-opacity:1;stroke:#d40000;stroke-width:5;stroke-miterlimit:4;stroke-dasharray:none;stroke-opacity:1"
     id="path1095"
     cx="1761.0442"
     cy="1049.8544"
     rx="427.21628"
     ry="296.76855" />
</svg>
